<svg xmlns="http://www.w3.org/2000/svg" width="32" height="33" viewBox="0 0 32 33">
    <g fill="none" fill-rule="evenodd">
        <g fill="#BEBEBF">
            <g>
                <g>
                    <g>
                        <path d="M16.001 0c.553 0 1 .452 1 .993v3.592l1.714-1.713c.357-.357.92-.384 1.313-.077l.095.084c.39.39.388 1.026.006 1.407l-2.841 2.842c-.085.085-.183.152-.286.2v17.345c.103.047.2.114.286.2l2.841 2.84c.382.382.384 1.018-.006 1.408l-.095.084c-.394.307-.956.28-1.313-.077l-1.714-1.714v3.593c0 .51-.382.929-.882.986L16 32c-.552 0-1-.452-1-.993v-3.594l-1.713 1.715c-.352.352-.921.381-1.314.076l-.094-.083-.084-.094c-.307-.394-.28-.956.078-1.313l2.841-2.842c.085-.085.182-.15.286-.198V7.326c-.104-.047-.201-.113-.286-.198l-2.841-2.842c-.358-.357-.385-.919-.078-1.313l.084-.094c.39-.39 1.026-.389 1.408-.007L15 4.586V.993c0-.51.383-.929.883-.986L16.001 0z" transform="translate(-48 -195) translate(20 146.81) translate(27.999 48.309)"/>
                        <path d="M16.001 0c.553 0 1 .452 1 .993v3.592l1.714-1.713c.357-.357.92-.384 1.313-.077l.095.084c.39.39.388 1.026.006 1.407l-2.841 2.842c-.085.085-.183.152-.286.2v17.345c.103.047.2.114.286.2l2.841 2.84c.382.382.384 1.018-.006 1.408l-.095.084c-.394.307-.956.28-1.313-.077l-1.714-1.714v3.593c0 .51-.382.929-.882.986L16 32c-.552 0-1-.452-1-.993v-3.594l-1.713 1.715c-.352.352-.921.381-1.314.076l-.094-.083-.084-.094c-.307-.394-.28-.956.078-1.313l2.841-2.842c.085-.085.182-.15.286-.198V7.326c-.104-.047-.201-.113-.286-.198l-2.841-2.842c-.358-.357-.385-.919-.078-1.313l.084-.094c.39-.39 1.026-.389 1.408-.007L15 4.586V.993c0-.51.383-.929.883-.986L16.001 0z" transform="translate(-48 -195) translate(20 146.81) translate(27.999 48.309) rotate(90 16 16)"/>
                        <path d="M16.001 0c.553 0 1 .452 1 .993v3.592l1.714-1.713c.357-.357.92-.384 1.313-.077l.095.084c.39.39.388 1.026.006 1.407l-2.841 2.842c-.085.085-.183.152-.286.2v17.345c.103.047.2.114.286.2l2.841 2.84c.382.382.384 1.018-.006 1.408l-.095.084c-.394.307-.956.28-1.313-.077l-1.714-1.714v3.593c0 .51-.382.929-.882.986L16 32c-.552 0-1-.452-1-.993v-3.594l-1.713 1.715c-.352.352-.921.381-1.314.076l-.094-.083-.084-.094c-.307-.394-.28-.956.078-1.313l2.841-2.842c.085-.085.182-.15.286-.198V7.326c-.104-.047-.201-.113-.286-.198l-2.841-2.842c-.358-.357-.385-.919-.078-1.313l.084-.094c.39-.39 1.026-.389 1.408-.007L15 4.586V.993c0-.51.383-.929.883-.986L16.001 0z" transform="translate(-48 -195) translate(20 146.81) translate(27.999 48.309) rotate(135 16 16)"/>
                        <path d="M16.001 0c.553 0 1 .452 1 .993v3.592l1.714-1.713c.357-.357.92-.384 1.313-.077l.095.084c.39.39.388 1.026.006 1.407l-2.841 2.842c-.085.085-.183.152-.286.2v17.345c.103.047.2.114.286.2l2.841 2.84c.382.382.384 1.018-.006 1.408l-.095.084c-.394.307-.956.28-1.313-.077l-1.714-1.714v3.593c0 .51-.382.929-.882.986L16 32c-.552 0-1-.452-1-.993v-3.594l-1.713 1.715c-.352.352-.921.381-1.314.076l-.094-.083-.084-.094c-.307-.394-.28-.956.078-1.313l2.841-2.842c.085-.085.182-.15.286-.198V7.326c-.104-.047-.201-.113-.286-.198l-2.841-2.842c-.358-.357-.385-.919-.078-1.313l.084-.094c.39-.39 1.026-.389 1.408-.007L15 4.586V.993c0-.51.383-.929.883-.986L16.001 0z" transform="translate(-48 -195) translate(20 146.81) translate(27.999 48.309) rotate(-135 16 16)"/>
                    </g>
                </g>
            </g>
        </g>
    </g>
</svg>
