<svg xmlns="http://www.w3.org/2000/svg" width="32" height="33" viewBox="0 0 32 33">
    <g fill="none" fill-rule="evenodd">
        <g>
            <g>
                <g>
                    <g>
                        <path fill="#354052" d="M21.009 12C22.66 12 24 13.336 24 15v13c0 1.657-1.342 3-2.991 3H2.99C1.34 31 0 29.664 0 28V15c0-1.657 1.342-3 2.991-3H21.01zM12 18c-1.105 0-2 .895-2 2 0 .74.402 1.387 1 1.732V24c0 .556.448 1 1 1l.117-.007c.5-.057.883-.48.883-.993l.001-2.268c.597-.346.999-.992.999-1.732 0-1.105-.895-2-2-2z" transform="translate(-40 -404) translate(20 383) translate(20 21.5) translate(4 1)"/>
                        <path stroke="#354052" stroke-width="2" d="M5 13V7c0-4.984 3-7 7-7s7 2 7 7" transform="translate(-40 -404) translate(20 383) translate(20 21.5) translate(4 1)"/>
                    </g>
                </g>
            </g>
        </g>
    </g>
</svg>
