<svg xmlns="http://www.w3.org/2000/svg" width="32" height="33" viewBox="0 0 32 33">
    <g fill="none" fill-rule="evenodd" stroke-linecap="round">
        <g stroke="#FB4A46" stroke-width="2">
            <g>
                <g>
                    <g>
                        <path d="M3 31s3-4.21 3-7.016c0-2.807-3-3.742-3-7.016s3-2.807 3-7.016C6 5.742 2 2 2 2" transform="translate(-243 -195) translate(20 146.81) translate(223 48.309)"/>
                        <path stroke-linejoin="round" d="M1 6L2 1 7 2" transform="translate(-243 -195) translate(20 146.81) translate(223 48.309)"/>
                        <path d="M15 31s3-4.21 3-7.016c0-2.807-3-3.742-3-7.016s3-2.807 3-7.016C18 5.742 14 2 14 2" transform="translate(-243 -195) translate(20 146.81) translate(223 48.309)"/>
                        <path stroke-linejoin="round" d="M13 6L14 1 19 2" transform="translate(-243 -195) translate(20 146.81) translate(223 48.309)"/>
                        <path d="M27 31s3-4.21 3-7.016c0-2.807-3-3.742-3-7.016s3-2.807 3-7.016C30 5.742 26 2 26 2" transform="translate(-243 -195) translate(20 146.81) translate(223 48.309)"/>
                        <path stroke-linejoin="round" d="M25 6L26 1 31 2" transform="translate(-243 -195) translate(20 146.81) translate(223 48.309)"/>
                    </g>
                </g>
            </g>
        </g>
    </g>
</svg>
