<svg xmlns="http://www.w3.org/2000/svg" width="32" height="33" viewBox="0 0 32 33">
    <g fill="none" fill-rule="evenodd">
        <g fill="#354052">
            <g>
                <g transform="translate(-430 -404) translate(410 383) translate(20 21.5)">
                    <g>
                        <path d="M16.45.898l2.1 4.204c.249.496-.001.898-.54.898H17v9.993c0 .517-.383.942-.883 1L16 17c-.552 0-1-.45-1-1.007V6h-1.01c-.546 0-.793-.394-.54-.898l2.1-4.204c.249-.496.647-.504.9 0z" transform="translate(0 3)"/>
                        <path d="M9.309 12.075l2.101 4.203c.248.496-.001.898-.541.898h-1.01v9.994c0 .516-.382.942-.882 1l-.117.006c-.553 0-1-.45-1-1.006v-9.994H6.85c-.547 0-.794-.393-.541-.898l2.101-4.203c.248-.496.646-.505.899 0zm2.747 7.7c.276 0 .5.214.5.497v4.005c0 .244-.184.447-.413.49l-.087.008c-.276 0-.5-.215-.5-.498v-4.005c0-.244.183-.447.412-.49l.088-.007z" transform="translate(0 3) rotate(-120 9.383 19.938)"/>
                        <path d="M22.12 12.727l2.103 4.204c.248.496-.002.898-.542.898h-1.01v9.993c0 .516-.382.942-.882 1l-.117.007c-.552 0-1-.45-1-1.007V17.83h-1.01c-.547 0-.793-.394-.541-.898l2.102-4.204c.248-.496.646-.504.898 0zm2.402 9.625c.276 0 .5.215.5.49v3.02c0 .24-.183.44-.412.482l-.088.008c-.276 0-.5-.215-.5-.49v-3.02c0-.24.183-.44.412-.482l.088-.008z" transform="translate(0 3) rotate(120 22.022 20.59)"/>
                    </g>
                    <rect width="1" height="5" x="19" y="10" rx=".5"/>
                </g>
            </g>
        </g>
    </g>
</svg>
