<svg xmlns="http://www.w3.org/2000/svg" width="24" height="24" viewBox="0 0 24 24">
    <g fill="none" fill-rule="evenodd">
        <g>
            <g>
                <g>
                    <path stroke="#354052" d="M5.84.505c.76.001 1.425.27 1.9.719.477.45.76 1.078.76 1.776h0l.001 10.1c1.78.91 2.999 2.763 2.999 4.9 0 1.519-.616 2.894-1.61 3.89-.996.994-2.371 1.61-3.89 1.61-1.519 0-2.894-.616-3.89-1.61C1.117 20.893.5 19.518.5 18c0-2.137 1.22-3.99 3-4.9h0V3c0-.663.26-1.266.681-1.714C4.603.84 5.188.546 5.84.506z" transform="translate(-20 -111) translate(20 111)"/>
                    <path fill="#FB4A46" d="M19.01 13c.507 0 .926.383.983.883L20 14c0 .552-.451 1-.99 1h-4.02c-.546 0-.99-.444-.99-1 0-.552.451-1 .99-1h4.02zm-.007-4c.511 0 .933.383.99.883L20 10c0 .552-.453 1-.997 1h-6.006c-.55 0-.997-.444-.997-1 0-.552.453-1 .997-1h6.006zm0-4c.511 0 .933.383.99.883L20 6c0 .552-.453 1-.997 1h-6.006C12.447 7 12 6.556 12 6c0-.552.453-1 .997-1h6.006zm0-4c.511 0 .933.383.99.883L20 2c0 .552-.453 1-.997 1h-6.006C12.447 3 12 2.556 12 2c0-.552.453-1 .997-1h6.006z" transform="translate(-20 -111) translate(20 111)"/>
                </g>
                <path fill="#354052" d="M6 2c.552 0 1 .45 1 1.007v11.12c1.726.444 3 2.01 3 3.873 0 2.21-1.79 4-4 4s-4-1.79-4-4c0-1.864 1.275-3.43 3-3.874V3.006c0-.516.383-.941.883-1L6 2z" transform="translate(-20 -111) translate(20 111)"/>
            </g>
        </g>
    </g>
</svg>
